<?xml version="1.0" encoding="UTF-8"?>
<svg id="Layer_1" data-name="Layer 1" xmlns="http://www.w3.org/2000/svg" version="1.1" viewBox="0 0 595.28 841.89">
  <defs>
    <style>
      .cls-1 {
        stroke: #fff;
        stroke-miterlimit: 10;
      }

      .cls-1, .cls-2 {
        fill: #fff;
      }

      .cls-2 {
        stroke-width: 0px;
      }
    </style>
  </defs>
  <path class="cls-1" d="M291.83,433.65c-8.98,10.9-19.55,22.39-31.74,34.46-12.18,12.08-25.22,23.35-39.11,33.82-13.89,10.47-28.21,19.45-42.96,26.93-14.75,7.48-29.07,11.97-42.96,13.46-8.12,1.07-15.07,1.6-20.84,1.6s-12.08-.43-18.91-1.28c-4.7-.64-9.3-1.6-13.78-2.89-8.12-2.56-15.6-6.3-22.44-11.22-6.84-4.91-12.72-10.68-17.63-17.31-4.92-6.62-8.77-13.94-11.54-21.96-2.78-8.01-4.17-16.4-4.17-25.16,0-10.9,2.08-21.16,6.25-30.78,4.17-9.62,9.88-18,17.15-25.16,7.26-7.16,15.65-12.82,25.16-16.99,9.51-4.17,19.71-6.25,30.61-6.25,2.56,0,5.13.11,7.69.32,2.56.22,5.13.54,7.69.96-.86-8.98-.06-17.95,2.4-26.93,2.45-8.98,6.25-17.42,11.38-25.32,5.13-7.9,11.49-15.07,19.07-21.48,7.58-6.41,16.08-11.54,25.49-15.39,13.46-5.77,26.5-9.56,39.11-11.38,12.61-1.81,25.97-2.72,40.07-2.72,12.39,0,24.84.7,37.35,2.08,12.5,1.39,24.52,3.21,36.06,5.45,11.54,2.24,22.22,4.76,32.06,7.53,9.83,2.78,18.27,5.66,25.33,8.65,7.26-4.27,14.69-7.69,22.28-10.26,7.58-2.56,15.65-4.17,24.2-4.81,1.28,0,2.93-.05,4.97-.16,2.03-.11,4.22.06,6.57.48,5.56.64,10.15,2.89,13.78,6.73,3.63,3.85,5.45,8.34,5.45,13.46v1.6c-.43,5.77-2.99,10.42-7.69,13.95-4.7,3.53-10.15,5.08-16.35,4.65-3.64-.21-7-.69-10.1-1.44-3.1-.75-6.41-1.87-9.94-3.37-3.53-1.49-7.59-3.31-12.18-5.45-4.6-2.13-10.1-4.81-16.51-8.01-3.2,2.56-6.36,5.35-9.46,8.34-3.1,3-6.36,6.31-9.78,9.94-7.91,8.12-16.62,18.49-26.13,31.1-9.51,12.61-20.15,26.29-31.9,41.03,4.27,1.28,8.38,3.16,12.34,5.61,3.95,2.46,7.74,5.61,11.38,9.46,1.07,1.07,2.03,2.24,2.88,3.53,10.04-2.99,20.04-7.32,29.97-12.98,9.94-5.66,18-13.62,24.2-23.88.21-.43.32-.96.32-1.6-.43-1.28-.91-2.61-1.44-4.01-.54-1.39-.48-2.94.16-4.65.64-2.35,1.92-4.11,3.85-5.29,1.92-1.17,3.74-1.44,5.45-.8,2.35.86,3.53,2.67,3.53,5.45,0,1.71-.54,3.53-1.6,5.45-6.84,11.97-15.87,21.96-27.09,29.97-11.22,8.01-22.82,13.62-34.78,16.83,1.71,4.06,2.56,8.23,2.56,12.5,0,4.49-.64,9.14-1.92,13.94-1.28,4.81-2.68,9.62-4.17,14.43-1.5,4.81-2.83,9.57-4.01,14.27-1.18,4.7-1.76,9.19-1.76,13.46,0,3.85.64,7.48,1.92,10.9,3.63,9.83,8.98,17.26,16.03,22.28,7.05,5.02,14.64,8.17,22.76,9.46,2.78.43,5.4.54,7.85.32,2.46-.21,5.18-.53,8.17-.96,4.91-.85,9.51-2.57,13.78-5.13,4.27-2.57,8.01-5.77,11.22-9.62,3.21-3.85,5.72-8.06,7.53-12.66,1.81-4.59,2.73-9.35,2.73-14.27,0-2.56-.38-5.23-1.12-8.01-.75-2.78-1.82-5.5-3.21-8.18-1.39-2.67-2.99-5.18-4.81-7.53-1.82-2.35-3.8-4.17-5.93-5.45-1.92-1.28-3.1-1.39-3.53-.32-.43,1.07-1.39,1.71-2.89,1.92-2.35,0-4.33-.85-5.93-2.56-1.6-1.71-2.51-3.63-2.72-5.77-.22-1.28.27-2.45,1.44-3.53,1.17-1.07,2.61-1.6,4.33-1.6s3.47.54,5.29,1.6c1.81,1.07,3.58,2.35,5.29,3.85,1.71,1.5,3.2,2.88,4.49,4.17,1.28,1.28,2.24,2.14,2.88,2.56,4.7,4.92,8.06,10.05,10.1,15.39,2.03,5.35,3.05,10.69,3.05,16.03s-.96,10.47-2.89,15.39c-1.92,4.92-4.49,9.41-7.69,13.46-3.21,4.06-7.05,7.48-11.54,10.26-4.49,2.78-9.29,4.6-14.42,5.45-.86.21-2.24.43-4.17.64-1.92.21-4.01.37-6.25.48-2.24.11-4.38.11-6.41,0-2.03-.11-3.69-.38-4.97-.8-4.7-.64-9.35-1.97-13.94-4.01-4.6-2.03-8.87-4.59-12.82-7.69-3.96-3.09-7.37-6.62-10.26-10.58-2.89-3.95-4.97-8.17-6.25-12.66-1.5-3.85-2.24-8.12-2.24-12.82s.64-9.51,1.92-14.42c1.28-4.91,2.67-9.78,4.17-14.59,1.49-4.81,2.83-9.51,4.01-14.11,1.17-4.59,1.76-8.92,1.76-12.98,0-4.27-.75-8.01-2.24-11.22-10.26,2.56-19.51,4.12-27.73,4.65-8.23.54-15.12.59-20.68.16ZM68.39,528.54c4.7,2.78,9.72,4.92,15.07,6.41,2.56.86,4.97,1.44,7.21,1.76s4.54.7,6.89,1.12c5.98,1.07,11.86,1.55,17.63,1.44,5.77-.11,11.97-.69,18.59-1.76,11.33-2.78,23.61-8.34,36.87-16.67,13.25-8.33,26.34-17.9,39.27-28.69,12.93-10.79,25.11-22.01,36.54-33.66,11.43-11.65,21-22.06,28.69-31.25-2.78-2.56-4.17-5.56-4.17-8.98-.22-.43-.27-.69-.16-.8s.16-.37.16-.8c-4.06,9.41-10.69,17.21-19.88,23.4-8.13,5.56-16.35,9.51-24.68,11.86-8.34,2.35-16.57,3.53-24.69,3.53-6.41,0-12.5-.64-18.27-1.92.43,3,.69,5.77.8,8.34.11,2.56.16,5.34.16,8.33v4.33c0,1.6-.11,3.26-.32,4.97-.43,3-1.28,5.24-2.56,6.73-1.28,1.5-2.78,2.24-4.49,2.24-2.35,0-4.12-1.01-5.29-3.05-1.18-2.03-1.76-4.22-1.76-6.57,0-1.92.43-3.31,1.28-4.17.85-.85,1.81-1.6,2.88-2.24,1.07-.64,2.08-1.39,3.05-2.24.96-.85,1.55-2.24,1.76-4.17.43-2.35.53-4.65.32-6.89-.22-2.24-.54-4.54-.96-6.89-11.11-2.77-20.41-6.94-27.89-12.5-9.19-6.84-15.92-13.95-20.2-21.32-4.28-7.37-7.27-15.76-8.98-25.16-1.07-.43-2.46-.75-4.17-.96-1.71-.21-4.6-.43-8.65-.64-10.05,0-19.55,1.98-28.53,5.93-8.98,3.96-16.83,9.3-23.56,16.03-6.73,6.73-12.08,14.59-16.03,23.56-3.96,8.98-5.93,18.59-5.93,28.85,0,12.82,2.99,24.63,8.98,35.42,5.98,10.79,14,19.61,24.04,26.45l.96.64ZM383.51,309.91c-7.05-2.77-15.39-5.5-25.01-8.18-9.62-2.67-19.93-5.02-30.93-7.05-11.01-2.03-22.49-3.63-34.46-4.81-11.97-1.17-23.72-1.76-35.26-1.76-9.83,0-18.91.64-27.25,1.92-8.33,1.28-15.66,2.67-21.96,4.17-6.31,1.5-11.59,3.05-15.87,4.65-4.28,1.6-7.16,2.72-8.65,3.37-9.83,4.49-18.33,9.99-25.49,16.51-7.16,6.52-12.98,13.57-17.47,21.16-4.49,7.59-7.75,15.55-9.78,23.88-2.03,8.33-2.94,16.56-2.72,24.68,7.05,2.14,14,5.45,20.84,9.94,8.33,5.99,15.44,13.2,21.32,21.64,5.88,8.44,9.78,17.9,11.7,28.37,2.99.64,6.09,1.18,9.3,1.6,3.21.43,6.52.64,9.94.64,7.48,0,15.23-1.12,23.24-3.37,8.01-2.24,15.76-5.93,23.24-11.06,7.69-5.34,13.35-11.59,16.99-18.75,3.63-7.16,5.45-14.37,5.45-21.64,0-5.13-.86-10.15-2.57-15.07-1.71-4.91-4.17-9.3-7.37-13.14-3.21-3.85-7.16-7.1-11.86-9.78-4.7-2.67-10.05-4.33-16.03-4.97-1.71-.21-2.89-.05-3.53.48-.64.54-1.23,1.23-1.76,2.08-.54.86-1.12,1.71-1.76,2.56-.64.86-1.82,1.6-3.53,2.24-2.36.64-4.81.43-7.37-.64-2.56-1.07-4.17-2.67-4.81-4.81-.64-2.35-.22-4.33,1.28-5.93,1.49-1.6,4.27-2.4,8.34-2.4h.64c4.27,0,8.06.32,11.38.96,3.31.64,5.82,1.18,7.53,1.6,11.54,2.78,20.52,8.6,26.93,17.47,6.41,8.87,9.51,18.65,9.3,29.33,0,5.99-.96,11.65-2.89,16.99,2.35-3.42,5.61-6.04,9.78-7.85,4.17-1.81,9.03-2.83,14.59-3.05,12.82-15.39,24.41-29.49,34.78-42.31,10.36-12.82,20.04-23.4,29.01-31.74,7.05-6.84,14.64-12.82,22.76-17.95ZM133.15,412.17c2.56,5.56,5.88,10.37,9.94,14.43,4.06,4.06,7.48,7.05,10.26,8.98,6.62,4.7,14.53,8.44,23.72,11.22-2.14-8.98-5.83-17.26-11.06-24.84-5.24-7.58-11.59-13.94-19.07-19.07-5.35-3.42-11.22-5.98-17.63-7.69,0,5.34,1.28,11.01,3.85,16.99ZM275.8,418.26c0,1.71.85,3.42,2.56,5.13,2.35-2.77,4.7-5.5,7.05-8.17,2.35-2.67,4.7-5.29,7.05-7.85-8.55,1.28-13.89,4.28-16.03,8.98-.43.43-.64,1.07-.64,1.92ZM336.07,422.75c-3.42-3.63-7.11-6.62-11.06-8.98-3.96-2.35-8.07-4.06-12.34-5.13-2.78,3.42-5.56,6.79-8.34,10.1-2.78,3.32-5.66,6.79-8.65,10.42.64.22,2.35.27,5.13.16,2.77-.11,6.2-.32,10.26-.64,4.06-.32,8.38-.8,12.98-1.44,4.59-.64,9.03-1.6,13.3-2.89-.22-.21-.37-.43-.48-.64-.11-.21-.38-.53-.8-.96ZM461.09,312.15c0-4.06-1.55-7.58-4.65-10.58-3.1-2.99-6.89-4.7-11.38-5.13h-1.92c-9.62,0-18.01,1.18-25.17,3.53-7.16,2.35-14.05,5.99-20.68,10.9,6.2,3,11.38,5.5,15.55,7.53,4.17,2.03,7.9,3.69,11.22,4.97,3.31,1.28,6.36,2.24,9.14,2.88,2.77.64,5.88,1.07,9.3,1.28h1.28c4.7,0,8.66-1.39,11.86-4.17,3.21-2.77,5.02-6.09,5.45-9.94v-1.28Z"/>
  <path class="cls-2" d="M506.91,543.6l-.17-87.88-43.6,73.23h-7.92l-43.59-72.72v87.36h-16.54v-120.62h14.13l50.31,84.78,49.63-84.78h14.13l.17,120.62h-16.54Z"/>
</svg>