<?xml version="1.0" encoding="UTF-8"?>
<svg id="Layer_1" data-name="Layer 1" xmlns="http://www.w3.org/2000/svg" version="1.1" viewBox="0 0 595.3 841.9">
  <defs>
    <style>
      .cls-1 {
        stroke: #fff;
        stroke-miterlimit: 10;
      }

      .cls-1, .cls-2 {
        fill: #000;
      }

      .cls-2 {
        stroke-width: 0px;
      }
    </style>
  </defs>
  <path class="cls-1" d="M291.8,433.6c-9,10.9-19.5,22.4-31.7,34.5-12.2,12.1-25.2,23.4-39.1,33.8-13.9,10.5-28.2,19.5-43,26.9s-29.1,12-43,13.5c-8.1,1.1-15.1,1.6-20.8,1.6s-12.1-.4-18.9-1.3c-4.7-.6-9.3-1.6-13.8-2.9-8.1-2.6-15.6-6.3-22.4-11.2-6.8-4.9-12.7-10.7-17.6-17.3-4.9-6.6-8.8-13.9-11.5-22-2.8-8-4.2-16.4-4.2-25.2s2.1-21.2,6.2-30.8,9.9-18,17.1-25.2c7.3-7.2,15.6-12.8,25.2-17,9.5-4.2,19.7-6.2,30.6-6.2s5.1.1,7.7.3c2.6.2,5.1.5,7.7,1-.9-9,0-18,2.4-26.9,2.4-9,6.3-17.4,11.4-25.3,5.1-7.9,11.5-15.1,19.1-21.5,7.6-6.4,16.1-11.5,25.5-15.4,13.5-5.8,26.5-9.6,39.1-11.4,12.6-1.8,26-2.7,40.1-2.7s24.8.7,37.4,2.1c12.5,1.4,24.5,3.2,36.1,5.5,11.5,2.2,22.2,4.8,32.1,7.5,9.8,2.8,18.3,5.7,25.3,8.6,7.3-4.3,14.7-7.7,22.3-10.3,7.6-2.6,15.6-4.2,24.2-4.8,1.3,0,2.9,0,5-.2,2-.1,4.2,0,6.6.5,5.6.6,10.1,2.9,13.8,6.7,3.6,3.9,5.5,8.3,5.5,13.5v1.6c-.4,5.8-3,10.4-7.7,14s-10.1,5.1-16.4,4.6c-3.6-.2-7-.7-10.1-1.4s-6.4-1.9-9.9-3.4c-3.5-1.5-7.6-3.3-12.2-5.5-4.6-2.1-10.1-4.8-16.5-8-3.2,2.6-6.4,5.4-9.5,8.3-3.1,3-6.4,6.3-9.8,9.9-7.9,8.1-16.6,18.5-26.1,31.1-9.5,12.6-20.1,26.3-31.9,41,4.3,1.3,8.4,3.2,12.3,5.6,4,2.5,7.7,5.6,11.4,9.5,1.1,1.1,2,2.2,2.9,3.5,10-3,20-7.3,30-13,9.9-5.7,18-13.6,24.2-23.9.2-.4.3-1,.3-1.6-.4-1.3-.9-2.6-1.4-4-.5-1.4-.5-2.9.2-4.6.6-2.4,1.9-4.1,3.9-5.3,1.9-1.2,3.7-1.4,5.5-.8,2.4.9,3.5,2.7,3.5,5.5s-.5,3.5-1.6,5.5c-6.8,12-15.9,22-27.1,30s-22.8,13.6-34.8,16.8c1.7,4.1,2.6,8.2,2.6,12.5s-.6,9.1-1.9,13.9c-1.3,4.8-2.7,9.6-4.2,14.4-1.5,4.8-2.8,9.6-4,14.3-1.2,4.7-1.8,9.2-1.8,13.5s.6,7.5,1.9,10.9c3.6,9.8,9,17.3,16,22.3s14.6,8.2,22.8,9.5c2.8.4,5.4.5,7.9.3,2.5-.2,5.2-.5,8.2-1,4.9-.8,9.5-2.6,13.8-5.1,4.3-2.6,8-5.8,11.2-9.6s5.7-8.1,7.5-12.7c1.8-4.6,2.7-9.4,2.7-14.3s-.4-5.2-1.1-8c-.8-2.8-1.8-5.5-3.2-8.2-1.4-2.7-3-5.2-4.8-7.5s-3.8-4.2-5.9-5.5c-1.9-1.3-3.1-1.4-3.5-.3s-1.4,1.7-2.9,1.9c-2.4,0-4.3-.9-5.9-2.6s-2.5-3.6-2.7-5.8c-.2-1.3.3-2.5,1.4-3.5,1.2-1.1,2.6-1.6,4.3-1.6s3.5.5,5.3,1.6c1.8,1.1,3.6,2.4,5.3,3.9,1.7,1.5,3.2,2.9,4.5,4.2,1.3,1.3,2.2,2.1,2.9,2.6,4.7,4.9,8.1,10,10.1,15.4,2,5.4,3,10.7,3,16s-1,10.5-2.9,15.4c-1.9,4.9-4.5,9.4-7.7,13.5-3.2,4.1-7,7.5-11.5,10.3-4.5,2.8-9.3,4.6-14.4,5.5-.9.2-2.2.4-4.2.6-1.9.2-4,.4-6.2.5s-4.4.1-6.4,0-3.7-.4-5-.8c-4.7-.6-9.4-2-13.9-4-4.6-2-8.9-4.6-12.8-7.7-4-3.1-7.4-6.6-10.3-10.6-2.9-4-5-8.2-6.2-12.7-1.5-3.9-2.2-8.1-2.2-12.8s.6-9.5,1.9-14.4,2.7-9.8,4.2-14.6c1.5-4.8,2.8-9.5,4-14.1,1.2-4.6,1.8-8.9,1.8-13s-.8-8-2.2-11.2c-10.3,2.6-19.5,4.1-27.7,4.6-8.2.5-15.1.6-20.7.2h0ZM68.4,528.5c4.7,2.8,9.7,4.9,15.1,6.4,2.6.9,5,1.4,7.2,1.8s4.5.7,6.9,1.1c6,1.1,11.9,1.5,17.6,1.4s12-.7,18.6-1.8c11.3-2.8,23.6-8.3,36.9-16.7,13.2-8.3,26.3-17.9,39.3-28.7s25.1-22,36.5-33.7,21-22.1,28.7-31.2c-2.8-2.6-4.2-5.6-4.2-9-.2-.4-.3-.7-.2-.8s.2-.4.2-.8c-4.1,9.4-10.7,17.2-19.9,23.4-8.1,5.6-16.4,9.5-24.7,11.9-8.3,2.4-16.6,3.5-24.7,3.5s-12.5-.6-18.3-1.9c.4,3,.7,5.8.8,8.3.1,2.6.2,5.3.2,8.3v4.3c0,1.6-.1,3.3-.3,5-.4,3-1.3,5.2-2.6,6.7-1.3,1.5-2.8,2.2-4.5,2.2s-4.1-1-5.3-3c-1.2-2-1.8-4.2-1.8-6.6s.4-3.3,1.3-4.2c.9-.9,1.8-1.6,2.9-2.2,1.1-.6,2.1-1.4,3.1-2.2,1-.9,1.6-2.2,1.8-4.2.4-2.4.5-4.6.3-6.9-.2-2.2-.5-4.5-1-6.9-11.1-2.8-20.4-6.9-27.9-12.5-9.2-6.8-15.9-14-20.2-21.3s-7.3-15.8-9-25.2c-1.1-.4-2.5-.8-4.2-1s-4.6-.4-8.7-.6c-10.1,0-19.5,2-28.5,5.9-9,4-16.8,9.3-23.6,16-6.7,6.7-12.1,14.6-16,23.6-4,9-5.9,18.6-5.9,28.9s3,24.6,9,35.4c6,10.8,14,19.6,24,26.5l1,.6h0ZM383.5,309.9c-7-2.8-15.4-5.5-25-8.2-9.6-2.7-19.9-5-30.9-7-11-2-22.5-3.6-34.5-4.8-12-1.2-23.7-1.8-35.3-1.8s-18.9.6-27.2,1.9c-8.3,1.3-15.7,2.7-22,4.2-6.3,1.5-11.6,3-15.9,4.6s-7.2,2.7-8.6,3.4c-9.8,4.5-18.3,10-25.5,16.5-7.2,6.5-13,13.6-17.5,21.2s-7.8,15.5-9.8,23.9c-2,8.3-2.9,16.6-2.7,24.7,7.1,2.1,14,5.5,20.8,9.9,8.3,6,15.4,13.2,21.3,21.6,5.9,8.4,9.8,17.9,11.7,28.4,3,.6,6.1,1.2,9.3,1.6,3.2.4,6.5.6,9.9.6,7.5,0,15.2-1.1,23.2-3.4,8-2.2,15.8-5.9,23.2-11.1,7.7-5.3,13.4-11.6,17-18.8,3.6-7.2,5.5-14.4,5.5-21.6s-.9-10.1-2.6-15.1c-1.7-4.9-4.2-9.3-7.4-13.1-3.2-3.9-7.2-7.1-11.9-9.8-4.7-2.7-10.1-4.3-16-5-1.7-.2-2.9,0-3.5.5-.6.5-1.2,1.2-1.8,2.1-.5.9-1.1,1.7-1.8,2.6-.6.9-1.8,1.6-3.5,2.2-2.4.6-4.8.4-7.4-.6s-4.2-2.7-4.8-4.8c-.6-2.4-.2-4.3,1.3-5.9,1.5-1.6,4.3-2.4,8.3-2.4h.6c4.3,0,8.1.3,11.4,1,3.3.6,5.8,1.2,7.5,1.6,11.5,2.8,20.5,8.6,26.9,17.5s9.5,18.6,9.3,29.3c0,6-1,11.6-2.9,17,2.4-3.4,5.6-6,9.8-7.9s9-2.8,14.6-3c12.8-15.4,24.4-29.5,34.8-42.3,10.4-12.8,20-23.4,29-31.7,7-6.8,14.6-12.8,22.8-18h0ZM133.1,412.2c2.6,5.6,5.9,10.4,9.9,14.4s7.5,7,10.3,9c6.6,4.7,14.5,8.4,23.7,11.2-2.1-9-5.8-17.3-11.1-24.8-5.2-7.6-11.6-13.9-19.1-19.1-5.4-3.4-11.2-6-17.6-7.7,0,5.3,1.3,11,3.9,17h0ZM275.8,418.3c0,1.7.9,3.4,2.6,5.1,2.4-2.8,4.7-5.5,7-8.2,2.4-2.7,4.7-5.3,7-7.9-8.5,1.3-13.9,4.3-16,9-.4.4-.6,1.1-.6,1.9h0ZM336.1,422.8c-3.4-3.6-7.1-6.6-11.1-9-4-2.4-8.1-4.1-12.3-5.1-2.8,3.4-5.6,6.8-8.3,10.1-2.8,3.3-5.7,6.8-8.6,10.4.6.2,2.4.3,5.1.2,2.8-.1,6.2-.3,10.3-.6s8.4-.8,13-1.4c4.6-.6,9-1.6,13.3-2.9-.2-.2-.4-.4-.5-.6-.1-.2-.4-.5-.8-1h0ZM461.1,312.1c0-4.1-1.5-7.6-4.6-10.6-3.1-3-6.9-4.7-11.4-5.1h-1.9c-9.6,0-18,1.2-25.2,3.5s-14,6-20.7,10.9c6.2,3,11.4,5.5,15.5,7.5,4.2,2,7.9,3.7,11.2,5,3.3,1.3,6.4,2.2,9.1,2.9,2.8.6,5.9,1.1,9.3,1.3h1.3c4.7,0,8.7-1.4,11.9-4.2,3.2-2.8,5-6.1,5.5-9.9v-1.3h0Z"/>
  <path class="cls-2" d="M506.9,543.6l-.2-87.9-43.6,73.2h-7.9l-43.6-72.7v87.4h-16.5v-120.6h14.1l50.3,84.8,49.6-84.8h14.1l.2,120.6h-16.5Z"/>
</svg>